<svg id="visual" viewBox="0 0 1920 800" width="1920" height="800" xmlns="http://www.w3.org/2000/svg" xmlns:xlink="http://www.w3.org/1999/xlink" version="1.1"><path d="M0 503L22.8 511.2C45.7 519.3 91.3 535.7 137 533.8C182.7 532 228.3 512 274 504C319.7 496 365.3 500 411.2 506.3C457 512.7 503 521.3 548.8 513.5C594.7 505.7 640.3 481.3 686 484.5C731.7 487.7 777.3 518.3 823 521C868.7 523.7 914.3 498.3 960 481.3C1005.7 464.3 1051.3 455.7 1097 454.3C1142.7 453 1188.3 459 1234 474.3C1279.7 489.7 1325.3 514.3 1371.2 526.2C1417 538 1463 537 1508.8 522.3C1554.7 507.7 1600.3 479.3 1646 480C1691.7 480.7 1737.3 510.3 1783 523.3C1828.7 536.3 1874.3 532.7 1897.2 530.8L1920 529L1920 0L1897.2 0C1874.3 0 1828.7 0 1783 0C1737.3 0 1691.7 0 1646 0C1600.3 0 1554.7 0 1508.8 0C1463 0 1417 0 1371.2 0C1325.3 0 1279.7 0 1234 0C1188.3 0 1142.7 0 1097 0C1051.3 0 1005.7 0 960 0C914.3 0 868.7 0 823 0C777.3 0 731.7 0 686 0C640.3 0 594.7 0 548.8 0C503 0 457 0 411.2 0C365.3 0 319.7 0 274 0C228.3 0 182.7 0 137 0C91.3 0 45.7 0 22.8 0L0 0Z" fill="#f6e7de"></path><path d="M0 234L22.8 238C45.7 242 91.3 250 137 255.2C182.7 260.3 228.3 262.7 274 256.7C319.7 250.7 365.3 236.3 411.2 244.5C457 252.7 503 283.3 548.8 285.7C594.7 288 640.3 262 686 247.5C731.7 233 777.3 230 823 232.5C868.7 235 914.3 243 960 256.3C1005.7 269.7 1051.3 288.3 1097 283.8C1142.7 279.3 1188.3 251.7 1234 241.5C1279.7 231.3 1325.3 238.7 1371.2 237.2C1417 235.7 1463 225.3 1508.8 231.7C1554.7 238 1600.3 261 1646 269.3C1691.7 277.7 1737.3 271.3 1783 266.8C1828.7 262.3 1874.3 259.7 1897.2 258.3L1920 257L1920 0L1897.2 0C1874.3 0 1828.7 0 1783 0C1737.3 0 1691.7 0 1646 0C1600.3 0 1554.7 0 1508.8 0C1463 0 1417 0 1371.2 0C1325.3 0 1279.7 0 1234 0C1188.3 0 1142.7 0 1097 0C1051.3 0 1005.7 0 960 0C914.3 0 868.7 0 823 0C777.3 0 731.7 0 686 0C640.3 0 594.7 0 548.8 0C503 0 457 0 411.2 0C365.3 0 319.7 0 274 0C228.3 0 182.7 0 137 0C91.3 0 45.7 0 22.8 0L0 0Z" fill="#f6f2ec"></path></svg>