<svg xmlns="http://www.w3.org/2000/svg" width="800" viewBox="0 0 600 450" height="600" version="1.0">
    <path d="m208.218 91.655 7.938-4.7c9-5.328 9.773-11.613 7.168-15.847-2.203-3.637-6.922-4.598-13.067-1.211 4.133-3.531 4.364-6.73 2.895-9.219-1.754-2.96-5.055-3.527-11.055.024l-9.035 5.347.305.512c1.445-.312 2.351.633 3.91 3.266l9.656 16.316c1.559 2.633 1.953 3.883.985 4.996Zm3.11-6.93-6.492-10.973 2.597-1.539c5.45-3.226 9.739-1.566 12.336 2.825 2.297 3.875 1.637 8.02-3.629 11.136l-1.023.606c-1.574.933-2.23.578-3.79-2.055Zm-6.84-11.558-5.738-9.696 1.5-.887c3.73-2.207 7.14-1.707 9.047 1.512 1.515 2.563 1.117 5.563-1.555 7.14ZM273.055 66.035c7.035-1.22 14.133-7.32 12.363-17.54-1.773-10.261-10.488-13.757-17.566-12.535-8.879 1.54-13.855 9.172-12.422 17.465 1.82 10.512 10.504 13.84 17.625 12.61Zm-13.71-15.918c-1.638-6.707.82-11.703 6.519-12.688 7.242-1.254 13.726 6.293 15.898 15.106 1.332 5.465-.137 10.68-6.543 11.789-7.12 1.23-13.84-5.934-15.875-14.207ZM320.113 64.041l9.055 1.758c10.265 1.992 15.02-2.191 15.883-7.09.765-4.183-2.121-8.035-8.965-9.578 5.433.102 7.73-2.137 8.281-4.973.656-3.382-1.434-5.996-8.277-7.324l-10.309-2-.113.586c1.289.723 1.34 2.031.754 5.04l-3.61 18.609c-.586 3.004-1.12 4.199-2.586 4.39Zm6.926-3.113 2.43-12.52 2.964.575c6.215 1.207 8.325 5.297 7.352 10.304-.86 4.422-4.102 7.086-10.113 5.918l-1.168-.226c-1.793-.348-2.047-1.047-1.465-4.051Zm2.559-13.187 2.148-11.055 1.71.332c4.255.824 6.474 3.465 5.759 7.137-.567 2.918-2.856 4.898-5.903 4.308ZM370.212 78.313l4.246 2.504.305-.512c-1.075-1.027-.668-2.218 1.77-4.086l5.21-3.984 9.777 5.77-.914 6.566c-.402 3.02-.453 4.273-1.898 3.965l-.3.511 6.663 3.934.301-.516c-.605-.898-.996-2.41-.594-5.433l3.688-26.992-4.54-.504-.128 1.304c-.059.852-.367 1.461-1.094 2.02l-16.867 12.95c-2.438 1.866-3.984 2.234-5.32 1.991Zm12.098-6.535 11.25-8.61-1.954 14.098ZM91.05 229.33v2.438H79.315v-15.625h11.422v2.422h-8.516v4.078h7.547v2.375h-7.547v4.313ZM106.6 231.987c-1.2 0-2.36-.168-3.485-.5-1.125-.344-2.016-.8-2.672-1.375l1-2.25c.645.512 1.43.93 2.36 1.25a8.7 8.7 0 0 0 2.796.469c1.164 0 2.035-.18 2.61-.547.57-.375.859-.867.859-1.484 0-.446-.164-.817-.484-1.11a3.333 3.333 0 0 0-1.22-.672 28.29 28.29 0 0 0-2-.562c-1.198-.281-2.167-.563-2.905-.844a4.959 4.959 0 0 1-1.891-1.328c-.531-.602-.797-1.422-.797-2.453 0-.864.235-1.649.703-2.36.469-.707 1.176-1.27 2.125-1.687.946-.414 2.102-.625 3.469-.625.957 0 1.895.121 2.813.36.925.241 1.722.585 2.39 1.03l-.906 2.25a9.462 9.462 0 0 0-2.156-.906 8.017 8.017 0 0 0-2.157-.312c-1.148 0-2 .195-2.562.578-.555.387-.828.898-.828 1.531 0 .45.156.82.469 1.11.32.28.726.507 1.218.671.5.157 1.172.34 2.016.547 1.156.274 2.101.555 2.844.844.75.293 1.39.734 1.922 1.328.53.594.796 1.399.796 2.406 0 .868-.234 1.649-.703 2.344-.468.7-1.183 1.258-2.14 1.672-.95.414-2.11.625-3.485.625ZM126.452 218.596h-5.171v-2.453h13.265v2.453h-5.187v13.172h-2.907ZM144.828 231.925c-.5 0-.934-.172-1.297-.516-.355-.352-.531-.8-.531-1.344 0-.539.172-.984.515-1.328.352-.344.79-.516 1.313-.516.52 0 .957.172 1.312.516.352.344.532.79.532 1.328 0 .543-.184.992-.547 1.344-.356.344-.79.516-1.297.516ZM464.743 229.558v2.453h-11.516v-1.937l6.203-5.906c.695-.664 1.172-1.25 1.422-1.75s.375-.993.375-1.485c0-.726-.25-1.285-.75-1.672-.492-.382-1.211-.578-2.156-.578-1.594 0-2.82.543-3.672 1.625l-2.031-1.562c.613-.813 1.437-1.446 2.468-1.907 1.04-.457 2.203-.687 3.485-.687 1.687 0 3.035.406 4.047 1.219 1.02.804 1.53 1.898 1.53 3.281 0 .844-.183 1.64-.546 2.39-.355.743-1.04 1.587-2.047 2.532l-4.172 3.984ZM480.415 232.23c-1.25 0-2.371-.312-3.36-.937-.98-.633-1.75-1.555-2.312-2.766-.562-1.219-.844-2.66-.844-4.328 0-1.664.282-3.102.844-4.313.563-1.218 1.332-2.144 2.313-2.78.988-.634 2.109-.954 3.359-.954s2.367.32 3.36.953c.988.637 1.765 1.563 2.327 2.781.57 1.211.86 2.649.86 4.313 0 1.668-.29 3.11-.86 4.328-.562 1.21-1.34 2.133-2.328 2.766-.992.625-2.11.937-3.36.937Zm0-2.516c1.113 0 1.992-.457 2.64-1.375.657-.925.985-2.304.985-4.14 0-1.832-.328-3.207-.984-4.125-.649-.926-1.528-1.39-2.641-1.39-1.106 0-1.98.464-2.625 1.39-.649.918-.969 2.293-.969 4.125 0 1.836.32 3.215.969 4.14.644.918 1.52 1.375 2.625 1.375ZM507.711 229.558v2.453h-11.515v-1.937l6.203-5.906c.695-.664 1.172-1.25 1.422-1.75s.375-.993.375-1.485c0-.726-.25-1.285-.75-1.672-.492-.382-1.211-.578-2.156-.578-1.594 0-2.82.543-3.672 1.625l-2.032-1.562c.614-.813 1.438-1.446 2.47-1.907 1.038-.457 2.202-.687 3.484-.687 1.687 0 3.035.406 4.046 1.219 1.02.804 1.532 1.898 1.532 3.281 0 .844-.184 1.64-.547 2.39-.356.743-1.04 1.587-2.047 2.532l-4.172 3.984ZM522.274 216.386v15.625h-2.906v-13.203h-3.312v-2.422ZM177.094 365.273l4.562 3.41.36-.476c-1.367-1.867-1.293-3.672 1.808-7.824l10.559-14.133-1.934 20.414.786.586 18.878-8.235-12.308 16.485c-1.832 2.449-2.832 3.293-4.238 2.828l-.356.48 6.336 4.73.355-.476c-.843-1.215-.32-2.414 1.512-4.867l9.817-13.144c3.105-4.157 4.746-4.79 6.718-4.164l.356-.477-4.836-3.61-18.434 7.985 2.02-20.246-5.11-3.817-.355.477c1.16 1.715 1.02 3.469-2.086 7.621l-9.816 13.149c-1.832 2.449-2.832 3.293-4.239 2.828ZM245.335 403.592c5.914 1.883 11.211-.047 13.801-8.188l3.88-12.195c.925-2.914 1.597-4.039 3.073-4.059l.18-.57-5.426-1.722-.18.566c1.899 1.316 2.419 3.043.848 7.984l-3.129 9.844c-2.5 7.86-7.715 8.965-11.117 7.883-5.508-1.75-8.277-5.664-5.933-13.035l3.98-12.516c.926-2.918 1.598-4.043 3.074-4.062l.184-.57-7.535-2.395-.18.566c1.195.871 1.09 2.176.164 5.094l-3.879 12.191c-2.77 8.711 2.363 13.332 8.195 15.184ZM311.568 411.838l.554-.004-.113-24.696c-.016-3.058.277-4.335 1.68-4.812l-.004-.594-5.738.028.003.593c2.211.672 3.239 2.153 3.262 7.34l.067 14.41-17.954-22.277-4.804.02.004.597c1.828.457 2.218 1.73 2.23 4.793l.086 18.957c.016 3.059-.277 4.336-1.676 4.809v.597l5.7-.027-.004-.594c-2.215-.672-3.243-2.152-3.266-7.34l-.074-16.875ZM362.072 401.418c4.914-1.652 7.652-3.652 9.46-5.336l-1.296-5.98-.55.097c-.04 4.676-2.22 8.461-6.731 9.98-7.856 2.645-14.875-3.019-17.493-10.792-2.699-8.016.415-13.82 6.86-15.992 4.148-1.395 9.14-.297 12.187 3.296l.446-.28-1.953-5.266c-2.57-.704-6.907.128-9.891 1.132-9.867 3.325-14.047 12.223-11.309 20.36 3.04 9.023 10.645 12.023 20.27 8.781ZM401.948 381.723l6.274-4.808-.36-.473c-1.398.48-2.41-.348-4.273-2.777l-6.074-7.93 11.742-8.996 6.074 7.926c1.863 2.43 2.402 3.625 1.57 4.847l.364.473 6.277-4.809-.363-.472c-1.399.48-2.41-.348-4.274-2.778l-11.531-15.047c-1.86-2.43-2.398-3.625-1.57-4.847l-.364-.473-6.273 4.809.363.472c1.395-.48 2.407.348 4.27 2.778l4.988 6.511-11.738 9-4.992-6.511c-1.86-2.43-2.399-3.625-1.57-4.848l-.364-.473-6.273 4.809.359.473c1.398-.48 2.41.347 4.273 2.777l11.532 15.047c1.859 2.43 2.398 3.625 1.57 4.847Zm0 0" fill="#31231d"/>
</svg>
